<?xml version="1.0" encoding="UTF-8"?>
<!DOCTYPE svg PUBLIC "-//W3C//DTD SVG 1.1//EN" "http://www.w3.org/Graphics/SVG/1.1/DTD/svg11.dtd">
<!-- Creator: CorelDRAW 2021.5 -->
<svg xmlns="http://www.w3.org/2000/svg" xml:space="preserve" width="6.87252in" height="1.15548in" version="1.1" style="shape-rendering:geometricPrecision; text-rendering:geometricPrecision; image-rendering:optimizeQuality; fill-rule:evenodd; clip-rule:evenodd"
viewBox="0 0 10508.18 1766.74"
 xmlns:xlink="http://www.w3.org/1999/xlink"
 xmlns:xodm="http://www.corel.com/coreldraw/odm/2003">
 <defs>
  <style type="text/css">
   <![CDATA[
    .fil1 {fill:#FEFEFE;fill-rule:nonzero}
    .fil0 {fill:#373435;fill-rule:nonzero}
    .fil2 {fill:#FEC767;fill-rule:nonzero}
   ]]>
  </style>
 </defs>
 <g id="Слой_x0020_1">
  <metadata id="CorelCorpID_0Corel-Layer"/>
  <g id="_2364320591872">
   <path class="fil0" d="M1951.79 630.33c0,113.36 -25.63,199.62 -76.81,258.76 -51.26,59.19 -122.15,88.74 -212.7,88.74 -93.27,0 -165.51,-30.86 -216.76,-92.48 -51.18,-61.71 -76.81,-149.18 -76.81,-262.54l0 -604.77 -108.37 0 0 612.29c0,145.44 36.12,258.01 108.37,337.78 72.22,79.7 169.21,119.56 290.83,119.56 123.49,0 221.14,-40.12 292.93,-120.37 71.78,-80.18 107.69,-195.56 107.69,-345.97l0 -603.28 -108.37 0 0 612.29z"/>
   <path class="fil0" d="M3418.66 359.57c0,69.17 -26.31,125.13 -78.95,167.72 -52.71,42.6 -122.62,63.92 -209.92,63.92l-260.21 0 0 -463.36 266.22 0c87.3,0 156.21,19.84 206.9,59.44 50.63,39.6 75.96,96.05 75.96,169.21l0 3.06zm-273.82 -341.52l-394.17 0 0 1053.08 118.9 0 0 -371.56 255.68 0c118.39,0 216.89,-30.13 295.67,-90.3 78.73,-60.19 118.08,-144.9 118.08,-254.23l0 -2.99c0,-103.33 -35.87,-184.82 -107.54,-244.52 -71.76,-59.67 -167.23,-89.49 -286.62,-89.49z"/>
   <polygon class="fil0" points="4874.26,485.92 4266.52,485.92 4266.52,18.04 4147.64,18.04 4147.64,1071.15 4266.52,1071.15 4266.52,597.27 4874.26,597.27 4874.26,1071.15 4993.15,1071.15 4993.15,18.04 4874.26,18.04 "/>
   <path class="fil0" d="M6591.59 547.62c0,121.33 -41.07,223.62 -123.13,306.89 -82.12,83.24 -186.22,124.87 -312.35,124.87 -126.1,0 -230.66,-42.11 -313.83,-126.41 -83.22,-84.22 -124.81,-187.01 -124.81,-308.4l0 -2.99c0,-121.35 41.05,-223.62 123.19,-306.86 82.12,-83.27 186.18,-124.89 312.28,-124.89 126.1,0 230.73,42.11 313.89,126.33 83.16,84.31 124.74,187.09 124.74,308.42l0 3.06zm-435.47 -547.62c-165.28,0 -301.4,53.38 -408.43,160.19 -107.03,106.84 -160.5,234.96 -160.5,384.37l0 3.06c0,149.44 52.96,277.07 158.93,382.84 105.95,105.85 241.56,158.72 406.84,158.72 165.3,0 301.43,-53.43 408.44,-160.19 107.03,-106.81 160.52,-234.93 160.52,-384.44l0 -2.99c0,-149.42 -52.96,-277.07 -158.91,-382.85 -105.99,-105.84 -241.61,-158.72 -406.89,-158.72z"/>
   <path class="fil0" d="M7477.76 555.1l0 -427.23 324.94 0c85.2,0 151.44,18.31 198.56,54.92 47.14,36.61 70.7,87.53 70.7,152.67l0 2.99c0,66.24 -25.08,118.88 -75.22,158 -50.14,39.12 -115.31,58.66 -195.56,58.66l-323.41 0zm636.33 -15.8c52.16,-52.65 78.23,-121.09 78.23,-205.32l0 -2.99c0,-84.29 -27.05,-153.47 -81.23,-207.65 -70.2,-70.21 -169.99,-105.29 -299.39,-105.29l-452.85 0 0 1053.08 118.9 0 0 -409.22 300.88 0 305.4 409.22 145.94 0 -323.47 -430.27c86.26,-15.01 155.43,-48.86 207.58,-101.57z"/>
   <polygon class="fil0" points="8840.78,1071.13 8959.67,1071.13 8959.67,18.05 8840.78,18.05 "/>
   <polygon class="fil0" points="642.82,18.05 0.02,18.05 0.02,126.36 642.82,126.36 "/>
   <polygon class="fil0" points="9993.59,16.67 9993.27,15.93 9993.24,16.01 9993.16,15.86 9472.25,1098.12 9617.64,1098.12 9993.24,323.28 10357.74,1093.58 10508.18,1094.74 "/>
   <polygon class="fil0" points="108.31,594.02 585.7,594.02 585.7,485.71 108.31,485.71 0.02,485.71 0.02,594.02 0.02,962.85 0.02,1071.13 108.31,1071.13 649.17,1071.13 649.17,962.85 108.31,962.85 "/>
   <polygon class="fil0" points="9894.87,1098.12 10085.57,1098.12 9990.22,933.9 "/>
   <path class="fil0" d="M8787.28 1595.95c32.04,0 60.1,-10.43 84.14,-31.32 24.04,-20.86 36.03,-47.32 36.03,-79.38l0 -1.25c0,-32.47 -11.89,-59.04 -35.72,-79.7 -23.85,-20.67 -51.99,-31.01 -84.46,-31.01 -32.07,0 -58.93,10.13 -80.66,30.37 -21.7,20.22 -32.57,46.8 -32.57,79.7l0 1.28c0,32.04 11.06,58.61 33.21,79.7 22.13,21.09 48.8,31.62 80.02,31.62zm0.64 170.79c-55.24,0 -104.8,-15.19 -148.66,-45.55l22.13 -37.95c38.8,27.84 80.76,41.75 125.89,41.75 37.1,0 66.19,-10.02 87.28,-30.05 21.11,-20.03 31.64,-48.8 31.64,-86.32l0 -38.61c-34.57,45.98 -77.38,68.96 -128.41,68.96 -40.9,0 -76.75,-14.25 -107.54,-42.69 -30.77,-28.48 -46.17,-65.26 -46.17,-110.38l0 -1.25c0,-45.96 15.29,-83.19 45.87,-111.66 30.56,-28.46 66.49,-42.69 107.84,-42.69 51.46,0 94.03,21.91 127.77,65.79l0 -58.85 48.7 0 0 270.11c0,49.33 -13.91,87.94 -41.75,115.76 -29.09,29.09 -70.63,43.64 -124.59,43.64z"/>
   <path class="fil0" d="M9063.06 1664.26l0 -327.02 48.72 0 0 85.39c12.66,-28.24 30.54,-50.71 53.75,-67.36 23.19,-16.67 49.76,-24.57 79.7,-23.72l0 52.49 -3.8 0c-37.52,0 -68.5,13.08 -92.97,39.21 -24.46,26.16 -36.68,63.05 -36.68,110.7l0 130.3 -48.72 0z"/>
   <path class="fil0" d="M9455.9 1628.22c34.55,0 63.24,-12.23 86,-36.72 22.78,-24.44 34.15,-54.15 34.15,-89.17l0 -1.25c0,-35.42 -11.7,-65.58 -35.08,-90.46 -23.42,-24.89 -52.18,-37.33 -86.37,-37.33 -34.55,0 -63.14,12.33 -85.71,37.02 -22.53,24.65 -33.81,54.51 -33.81,89.51l0 1.28c0,35.42 11.58,65.47 34.76,90.13 23.19,24.67 51.88,37.02 86.05,37.02zm-1.3 43.64c-48.48,0 -88.85,-16.56 -121.11,-49.65 -32.26,-33.11 -48.4,-73.07 -48.4,-119.88l0 -1.25c0,-47.23 16.24,-87.5 48.71,-120.83 32.45,-33.3 73.14,-49.95 122.09,-49.95 48.48,0 88.94,16.55 121.45,49.65 32.45,33.09 48.69,73.06 48.69,119.86l0 1.28c0,47.21 -16.35,87.49 -49.03,120.81 -32.69,33.32 -73.48,49.97 -122.41,49.97z"/>
   <path class="fil0" d="M9834.12 1671.21c-38.8,0 -69.38,-12 -91.7,-36.03 -22.36,-24.04 -33.53,-55.66 -33.53,-94.88l0 -203.06 48.69 0 0 191.04c0,30.79 7.92,54.92 23.74,72.44 15.8,17.48 38.03,26.23 66.7,26.23 28.24,0 51.67,-9.48 70.23,-28.46 18.56,-18.97 27.82,-43.64 27.82,-74.01l0 -187.24 48.07 0 0 327.04 -48.07 0 0 -56.93c-26.57,42.6 -63.86,63.88 -111.96,63.88z"/>
   <path class="fil0" d="M10268.68 1627.57c32.89,0 60.31,-11.38 82.22,-34.15 21.92,-22.78 32.9,-53.35 32.9,-91.74l0 -1.25c0,-37.95 -11.06,-68.53 -33.22,-91.72 -22.12,-23.16 -49.43,-34.78 -81.9,-34.78 -31.22,0 -58.72,12 -82.55,36.06 -23.83,24.04 -35.72,53.99 -35.72,89.81l0 1.28c0,36.7 11.78,66.93 35.42,90.77 23.59,23.8 51.22,35.74 82.84,35.74zm-165.07 137.89l0 -428.23 48.69 0 0 65.79c34.15,-48.48 75.9,-72.74 125.23,-72.74 41.75,0 78.23,15.4 109.42,46.17 31.22,30.79 46.81,71.91 46.81,123.34l0 1.28c0,51.01 -15.59,92.14 -46.81,123.34 -31.19,31.19 -67.67,46.8 -109.42,46.8 -51.86,0 -93.61,-23.16 -125.23,-69.59l0 163.84 -48.69 0z"/>
   <path class="fil1" d="M1951.79 630.33c0,113.36 -25.63,199.62 -76.81,258.76 -51.26,59.19 -122.15,88.74 -212.7,88.74 -93.27,0 -165.51,-30.86 -216.78,-92.48 -51.18,-61.71 -76.79,-149.18 -76.79,-262.54l0 -604.77 -108.37 0 0 612.29c0,145.44 36.12,258.01 108.37,337.78 72.22,79.7 169.21,119.56 290.83,119.56 123.49,0 221.11,-40.12 292.91,-120.37 71.8,-80.18 107.69,-195.56 107.69,-345.97l0 -603.28 -108.35 0 0 612.29z"/>
   <path class="fil1" d="M3418.65 359.57c0,69.17 -26.31,125.13 -78.95,167.72 -52.71,42.6 -122.62,63.92 -209.92,63.92l-260.21 0 0 -463.36 266.22 0c87.28,0 156.22,19.84 206.9,59.44 50.63,39.6 75.96,96.05 75.96,169.21l0 3.06zm-273.82 -341.52l-394.15 0 0 1053.08 118.88 0 0 -371.56 255.71 0c118.37,0 216.87,-30.13 295.65,-90.3 78.72,-60.19 118.07,-144.9 118.07,-254.23l0 -2.99c0,-103.33 -35.85,-184.82 -107.54,-244.52 -71.73,-59.67 -167.23,-89.49 -286.62,-89.49z"/>
   <polygon class="fil1" points="4874.27,485.92 4266.53,485.92 4266.53,18.04 4147.62,18.04 4147.62,1071.15 4266.53,1071.15 4266.53,597.27 4874.27,597.27 4874.27,1071.15 4993.15,1071.15 4993.15,18.04 4874.27,18.04 "/>
   <path class="fil1" d="M6591.61 547.62c0,121.33 -41.07,223.62 -123.13,306.89 -82.15,83.24 -186.24,124.87 -312.36,124.87 -126.08,0 -230.65,-42.11 -313.83,-126.41 -83.22,-84.22 -124.81,-187.01 -124.81,-308.4l0 -2.99c0,-121.35 41.05,-223.62 123.19,-306.86 82.15,-83.27 186.18,-124.89 312.28,-124.89 126.1,0 230.73,42.11 313.92,126.33 83.16,84.31 124.74,187.09 124.74,308.42l0 3.06zm-435.49 -547.62c-165.28,0 -301.41,53.38 -408.44,160.19 -107.01,106.84 -160.5,234.96 -160.5,384.37l0 3.06c0,149.44 52.96,277.07 158.95,382.84 105.93,105.85 241.54,158.72 406.83,158.72 165.3,0 301.43,-53.43 408.44,-160.19 107.03,-106.81 160.52,-234.93 160.52,-384.44l0 -2.99c0,-149.42 -52.96,-277.07 -158.91,-382.85 -105.97,-105.84 -241.58,-158.72 -406.89,-158.72z"/>
   <path class="fil1" d="M7477.76 555.1l0 -427.23 324.93 0c85.2,0 151.46,18.31 198.56,54.92 47.15,36.61 70.71,87.53 70.71,152.67l0 2.99c0,66.24 -25.1,118.88 -75.23,158 -50.14,39.12 -115.31,58.66 -195.57,58.66l-323.4 0zm636.32 -15.8c52.16,-52.65 78.23,-121.09 78.23,-205.32l0 -2.99c0,-84.29 -27.05,-153.47 -81.22,-207.65 -70.21,-70.21 -170,-105.29 -299.39,-105.29l-452.82 0 0 1053.08 118.88 0 0 -409.22 300.87 0 305.4 409.22 145.94 0 -323.47 -430.27c86.26,-15.01 155.45,-48.86 207.58,-101.57z"/>
   <polygon class="fil1" points="8840.78,1071.13 8959.67,1071.13 8959.67,18.05 8840.78,18.05 "/>
   <polygon class="fil1" points="642.82,18.05 -0,18.05 -0,126.36 642.82,126.36 "/>
   <polygon class="fil1" points="9993.6,16.67 9993.26,15.93 9993.24,16.01 9993.15,15.86 9472.25,1098.12 9617.64,1098.12 9993.24,323.28 10357.73,1093.58 10508.17,1094.74 "/>
   <polygon class="fil1" points="108.31,594.02 585.69,594.02 585.69,485.71 108.31,485.71 -0,485.71 -0,594.02 -0,962.85 -0,1071.13 108.31,1071.13 649.19,1071.13 649.19,962.85 108.31,962.85 "/>
   <polygon class="fil1" points="9894.86,1098.12 10085.57,1098.12 9990.21,933.9 "/>
   <path class="fil1" d="M8787.28 1595.95c32.04,0 60.1,-10.43 84.14,-31.32 24.04,-20.86 36.04,-47.32 36.04,-79.38l0 -1.25c0,-32.47 -11.9,-59.04 -35.72,-79.7 -23.85,-20.67 -51.99,-31.01 -84.46,-31.01 -32.04,0 -58.93,10.13 -80.66,30.37 -21.7,20.22 -32.55,46.8 -32.55,79.7l0 1.28c0,32.04 11.05,58.61 33.19,79.7 22.15,21.09 48.8,31.62 80.02,31.62zm0.64 170.79c-55.24,0 -104.78,-15.19 -148.66,-45.55l22.15 -37.95c38.78,27.84 80.74,41.75 125.87,41.75 37.1,0 66.19,-10.02 87.28,-30.05 21.11,-20.03 31.65,-48.8 31.65,-86.32l0 -38.61c-34.58,45.98 -77.39,68.96 -128.4,68.96 -40.92,0 -76.77,-14.25 -107.54,-42.69 -30.79,-28.48 -46.19,-65.26 -46.19,-110.38l0 -1.25c0,-45.96 15.29,-83.19 45.87,-111.66 30.56,-28.46 66.51,-42.69 107.86,-42.69 51.43,0 94.01,21.91 127.76,65.79l0 -58.85 48.69 0 0 270.11c0,49.33 -13.91,87.94 -41.75,115.76 -29.09,29.09 -70.63,43.64 -124.59,43.64z"/>
   <path class="fil1" d="M9063.06 1664.26l0 -327.02 48.71 0 0 85.39c12.66,-28.24 30.56,-50.71 53.75,-67.36 23.19,-16.67 49.76,-24.57 79.7,-23.72l0 52.49 -3.8 0c-37.53,0 -68.51,13.08 -92.97,39.21 -24.46,26.16 -36.68,63.05 -36.68,110.7l0 130.3 -48.71 0z"/>
   <path class="fil1" d="M9455.89 1628.22c34.57,0 63.26,-12.23 86.03,-36.72 22.77,-24.44 34.15,-54.15 34.15,-89.17l0 -1.25c0,-35.42 -11.7,-65.58 -35.11,-90.46 -23.42,-24.89 -52.18,-37.33 -86.35,-37.33 -34.57,0 -63.15,12.33 -85.71,37.02 -22.55,24.65 -33.83,54.51 -33.83,89.51l0 1.28c0,35.42 11.58,65.47 34.79,90.13 23.19,24.67 51.88,37.02 86.03,37.02zm-1.28 43.64c-48.5,0 -88.87,-16.56 -121.13,-49.65 -32.26,-33.11 -48.4,-73.07 -48.4,-119.88l0 -1.25c0,-47.23 16.25,-87.5 48.72,-120.83 32.47,-33.3 73.16,-49.95 122.09,-49.95 48.48,0 88.96,16.55 121.45,49.65 32.45,33.09 48.7,73.06 48.7,119.86l0 1.28c0,47.21 -16.36,87.49 -49.02,120.81 -32.7,33.32 -73.49,49.97 -122.41,49.97z"/>
   <path class="fil1" d="M9834.14 1671.21c-38.8,0 -69.38,-12 -91.72,-36.03 -22.36,-24.04 -33.53,-55.66 -33.53,-94.88l0 -203.06 48.69 0 0 191.04c0,30.79 7.92,54.92 23.74,72.44 15.8,17.48 38.06,26.23 66.73,26.23 28.24,0 51.64,-9.48 70.2,-28.46 18.56,-18.97 27.82,-43.64 27.82,-74.01l0 -187.24 48.08 0 0 327.04 -48.08 0 0 -56.93c-26.55,42.6 -63.86,63.88 -111.94,63.88z"/>
   <path class="fil1" d="M10268.7 1627.57c32.89,0 60.29,-11.38 82.22,-34.15 21.92,-22.78 32.9,-53.35 32.9,-91.74l0 -1.25c0,-37.95 -11.09,-68.53 -33.23,-91.72 -22.12,-23.16 -49.43,-34.78 -81.88,-34.78 -31.22,0 -58.74,12 -82.57,36.06 -23.83,24.04 -35.72,53.99 -35.72,89.81l0 1.28c0,36.7 11.79,66.93 35.42,90.77 23.6,23.8 51.25,35.74 82.87,35.74zm-165.09 137.89l0 -428.23 48.71 0 0 65.79c34.13,-48.48 75.9,-72.74 125.21,-72.74 41.77,0 78.23,15.4 109.43,46.17 31.22,30.79 46.8,71.91 46.8,123.34l0 1.28c0,51.01 -15.59,92.14 -46.8,123.34 -31.2,31.19 -67.66,46.8 -109.43,46.8 -51.86,0 -93.59,-23.16 -125.21,-69.59l0 163.84 -48.71 0z"/>
   <path class="fil2" d="M1951.79 630.33c0,113.36 -25.63,199.62 -76.81,258.76 -51.25,59.19 -122.15,88.77 -212.71,88.77 -93.27,0 -165.51,-30.86 -216.76,-92.51 -51.2,-61.71 -76.81,-149.18 -76.81,-262.54l0 -604.77 -108.37 0 0 612.29c0,145.44 36.12,258.01 108.37,337.78 72.22,79.72 169.21,119.56 290.83,119.56 123.49,0 221.14,-40.1 292.91,-120.35 71.8,-80.21 107.71,-195.58 107.71,-346l0 -603.28 -108.37 0 0 612.29z"/>
   <path class="fil2" d="M3418.67 359.57c0,69.17 -26.33,125.13 -78.98,167.73 -52.71,42.6 -122.62,63.92 -209.92,63.92l-260.21 0 0 -463.35 266.22 0c87.3,0 156.22,19.84 206.91,59.44 50.64,39.6 75.98,96.05 75.98,169.21l0 3.06zm-273.84 -341.52l-394.14 0 0 1053.08 118.88 0 0 -371.57 255.71 0c118.37,0 216.87,-30.13 295.65,-90.3 78.72,-60.19 118.1,-144.9 118.1,-254.22l0 -3c0,-103.33 -35.87,-184.82 -107.56,-244.51 -71.74,-59.67 -167.24,-89.49 -286.63,-89.49z"/>
   <polygon class="fil2" points="4874.26,485.92 4266.53,485.92 4266.53,18.04 4147.64,18.04 4147.64,1071.12 4266.53,1071.12 4266.53,597.27 4874.26,597.27 4874.26,1071.12 4993.15,1071.12 4993.15,18.04 4874.26,18.04 "/>
   <path class="fil2" d="M6591.6 547.62c0,121.32 -41.07,223.62 -123.13,306.89 -82.12,83.24 -186.24,124.86 -312.36,124.86 -126.08,0 -230.65,-42.11 -313.83,-126.41 -83.2,-84.22 -124.81,-187 -124.81,-308.39l0 -3c0,-121.34 41.05,-223.62 123.21,-306.86 82.12,-83.27 186.15,-124.89 312.28,-124.89 126.08,0 230.73,42.11 313.89,126.34 83.16,84.31 124.74,187.09 124.74,308.42l0 3.06zm-435.49 -547.62c-165.28,0 -301.41,53.36 -408.42,160.19 -107.03,106.84 -160.53,234.96 -160.53,384.38l0 3.06c0,149.44 52.97,277.05 158.96,382.84 105.95,105.84 241.56,158.72 406.84,158.72 165.28,0 301.41,-53.43 408.42,-160.2 107.03,-106.81 160.53,-234.93 160.53,-384.41l0 -3c0,-149.44 -52.97,-277.07 -158.89,-382.84 -105.99,-105.85 -241.61,-158.72 -406.91,-158.72z"/>
   <path class="fil2" d="M7477.76 555.1l0 -427.23 324.94 0c85.2,0 151.46,18.31 198.58,54.92 47.12,36.61 70.7,87.53 70.7,152.67l0 2.99c0,66.24 -25.08,118.88 -75.24,158 -50.12,39.12 -115.31,58.66 -195.56,58.66l-323.41 0zm636.35 -15.8c52.16,-52.65 78.21,-121.09 78.21,-205.32l0 -2.99c0,-84.29 -27.06,-153.47 -81.23,-207.65 -70.21,-70.21 -170,-105.29 -299.39,-105.29l-452.82 0 0 1053.08 118.88 0 0 -409.22 300.88 0 305.4 409.22 145.93 0 -323.47 -430.28c86.26,-15 155.45,-48.84 207.61,-101.55z"/>
   <polygon class="fil2" points="8840.78,1071.13 8959.67,1071.13 8959.67,18.05 8840.78,18.05 "/>
   <polygon class="fil2" points="642.82,18.05 0.02,18.05 0.02,126.34 642.82,126.34 "/>
   <polygon class="fil2" points="9993.6,16.67 9993.25,15.93 9993.24,16.01 9993.15,15.86 9472.25,1098.1 9617.65,1098.1 9993.24,323.28 10357.73,1093.56 10508.17,1094.74 "/>
   <polygon class="fil2" points="108.3,594.02 585.69,594.02 585.69,485.71 108.3,485.71 0.02,485.71 0.02,594.02 0.02,962.83 0.02,1071.13 108.3,1071.13 649.19,1071.13 649.19,962.83 108.3,962.83 "/>
   <polygon class="fil2" points="9894.86,1098.11 10085.56,1098.11 9990.21,933.89 "/>
   <path class="fil2" d="M8787.3 1595.94c32.03,0 60.08,-10.43 84.11,-31.32 24.04,-20.85 36.06,-47.32 36.06,-79.36l0 -1.25c0,-32.49 -11.92,-59.06 -35.75,-79.7 -23.83,-20.68 -51.99,-31.01 -84.43,-31.01 -32.07,0 -58.93,10.11 -80.66,30.35 -21.73,20.24 -32.57,46.81 -32.57,79.7l0 1.28c0,32.07 11.04,58.63 33.19,79.7 22.15,21.09 48.8,31.62 80.04,31.62zm0.61 170.8c-55.24,0 -104.78,-15.18 -148.65,-45.57l22.15 -37.95c38.78,27.86 80.74,41.75 125.89,41.75 37.08,0 66.19,-10.02 87.28,-30.03 21.09,-20.05 31.64,-48.82 31.64,-86.35l0 -38.59c-34.59,45.98 -77.4,68.93 -128.41,68.93 -40.9,0 -76.77,-14.22 -107.54,-42.69 -30.79,-28.46 -46.19,-65.26 -46.19,-110.38l0 -1.25c0,-45.95 15.29,-83.18 45.89,-111.64 30.56,-28.47 66.49,-42.7 107.84,-42.7 51.43,0 94.01,21.94 127.76,65.79l0 -58.82 48.72 0 0 270.08c0,49.36 -13.91,87.94 -41.75,115.76 -29.09,29.09 -70.65,43.66 -124.61,43.66z"/>
   <path class="fil2" d="M9063.05 1664.25l0 -327 48.72 0 0 85.37c12.65,-28.24 30.56,-50.72 53.75,-67.37 23.21,-16.64 49.78,-24.55 79.72,-23.72l0 52.52 -3.82 0c-37.5,0 -68.51,13.06 -92.97,39.2 -24.44,26.14 -36.67,63.05 -36.67,110.68l0 130.31 -48.72 0z"/>
   <path class="fil2" d="M9455.88 1628.21c34.57,0 63.26,-12.21 86.03,-36.7 22.77,-24.45 34.15,-54.17 34.15,-89.19l0 -1.25c0,-35.42 -11.7,-65.55 -35.1,-90.45 -23.4,-24.89 -52.18,-37.33 -86.35,-37.33 -34.58,0 -63.14,12.34 -85.72,37 -22.55,24.67 -33.82,54.51 -33.82,89.51l0 1.28c0,35.42 11.57,65.47 34.78,90.15 23.19,24.66 51.88,37 86.03,37zm-1.27 43.64c-48.51,0 -88.88,-16.54 -121.14,-49.64 -32.26,-33.11 -48.37,-73.08 -48.37,-119.88l0 -1.25c0,-47.23 16.22,-87.49 48.69,-120.81 32.47,-33.3 73.16,-49.97 122.09,-49.97 48.48,0 88.96,16.54 121.45,49.65 32.47,33.1 48.71,73.05 48.71,119.85l0 1.28c0,47.23 -16.37,87.51 -49.03,120.82 -32.69,33.32 -73.5,49.96 -122.41,49.96z"/>
   <path class="fil2" d="M9834.14 1671.22c-38.8,0 -69.38,-12.02 -91.72,-36.04 -22.36,-24.06 -33.51,-55.68 -33.51,-94.88l0 -203.06 48.69 0 0 191.04c0,30.77 7.9,54.91 23.72,72.41 15.82,17.5 38.05,26.25 66.72,26.25 28.24,0 51.65,-9.49 70.21,-28.48 18.56,-18.96 27.84,-43.62 27.84,-74.01l0 -187.22 48.06 0 0 327.02 -48.06 0 0 -56.93c-26.57,42.6 -63.88,63.9 -111.96,63.9z"/>
   <path class="fil2" d="M10268.69 1627.56c32.89,0 60.29,-11.36 82.22,-34.14 21.92,-22.79 32.9,-53.35 32.9,-91.72l0 -1.25c0,-37.95 -11.09,-68.53 -33.22,-91.74 -22.14,-23.17 -49.45,-34.76 -81.9,-34.76 -31.22,0 -58.74,12 -82.57,36.04 -23.83,24.04 -35.72,53.98 -35.72,89.81l0 1.27c0,36.7 11.79,66.94 35.42,90.77 23.62,23.83 51.25,35.74 82.87,35.74zm-165.09 137.89l0 -428.21 48.72 0 0 65.79c34.14,-48.5 75.9,-72.75 125.23,-72.75 41.75,0 78.23,15.4 109.4,46.17 31.22,30.8 46.8,71.93 46.8,123.34l0 1.27c0,51.04 -15.59,92.14 -46.8,123.36 -31.18,31.2 -67.65,46.8 -109.4,46.8 -51.86,0 -93.61,-23.19 -125.23,-69.59l0 163.82 -48.72 0z"/>
  </g>
 </g>
</svg>
